<svg xmlns="http://www.w3.org/2000/svg" width="59" height="48" viewBox="0 0 59 48" fill="none">
  <path d="M24.0275 7.92236V10.6042H13.3684V0L24.0275 7.92236Z" fill="white"/>
  <path d="M58.7096 23.9725H24.0275V48H13.3706V23.9725H0V19.3868C0 17.776 0.639867 16.2312 1.77884 15.0923C2.91781 13.9533 4.46259 13.3134 6.07334 13.3134H48.0209L58.7096 23.9725Z" fill="white"/>
  <path d="M58.7096 37.3409L48.0208 47.9978H32.5881C31.8195 47.998 31.0584 47.8467 30.3483 47.5526C29.6381 47.2585 28.9929 46.8275 28.4494 46.284C27.9059 45.7405 27.4749 45.0953 27.1808 44.3851C26.8867 43.675 26.7355 42.9139 26.7356 42.1453V26.6818H37.3925V37.3387L58.7096 37.3409Z" fill="white"/>
  <path d="M6.07334 48H10.6591V26.6862H0.00219727V41.9267C0.00219716 43.537 0.641765 45.0815 1.78026 46.2204C2.91876 47.3593 4.46297 47.9994 6.07334 48Z" fill="white"/>
</svg>