<svg
                  width="32"
                  height="32"
                  viewBox="0 0 32 32"
                  fill="none"
                  xmlns="http://www.w3.org/2000/svg"
                >
                  <path
                    d="M14.1332 18.4L11.2665 15.5334C11.0221 15.2889 10.711 15.1667 10.3332 15.1667C9.95539 15.1667 9.64428 15.2889 9.39984 15.5334C9.1554 15.7778 9.03317 16.0889 9.03317 16.4667C9.03317 16.8445 9.1554 17.1556 9.39984 17.4L13.1998 21.2C13.4665 21.4667 13.7776 21.6 14.1332 21.6C14.4887 21.6 14.7998 21.4667 15.0665 21.2L22.5998 13.6667C22.8443 13.4222 22.9665 13.1111 22.9665 12.7334C22.9665 12.3556 22.8443 12.0445 22.5998 11.8C22.3554 11.5556 22.0443 11.4334 21.6665 11.4334C21.2887 11.4334 20.9776 11.5556 20.7332 11.8L14.1332 18.4ZM15.9998 29.3334C14.1554 29.3334 12.4221 28.9831 10.7998 28.2827C9.17762 27.5822 7.76651 26.6325 6.56651 25.4334C5.36651 24.2342 4.41673 22.8231 3.71717 21.2C3.01762 19.5769 2.66739 17.8436 2.66651 16C2.66562 14.1565 3.01584 12.4231 3.71717 10.8C4.41851 9.17691 5.36828 7.7658 6.56651 6.56669C7.76473 5.36758 9.17584 4.4178 10.7998 3.71735C12.4238 3.01691 14.1572 2.66669 15.9998 2.66669C17.8425 2.66669 19.5758 3.01691 21.1998 3.71735C22.8238 4.4178 24.235 5.36758 25.4332 6.56669C26.6314 7.7658 27.5816 9.17691 28.2838 10.8C28.9861 12.4231 29.3358 14.1565 29.3332 16C29.3305 17.8436 28.9803 19.5769 28.2825 21.2C27.5847 22.8231 26.635 24.2342 25.4332 25.4334C24.2314 26.6325 22.8203 27.5827 21.1998 28.284C19.5794 28.9854 17.8461 29.3351 15.9998 29.3334Z"
                    fill="#0A84FF"
                  />
                </svg>