<svg width="24" height="24" viewBox="0 0 24 24" fill="none" xmlns="http://www.w3.org/2000/svg">
  <path d="M9 15H6C5.71667 15 5.47934 14.904 5.288 14.712C5.09667 14.52 5.00067 14.2827 5 14C4.99934 13.7173 5.09534 13.48 5.288 13.288C5.48067 13.096 5.718 13 6 13H10C10.2833 13 10.521 13.096 10.713 13.288C10.905 13.48 11.0007 13.7173 11 14V18C11 18.2833 10.904 18.521 10.712 18.713C10.52 18.905 10.2827 19.0007 10 19C9.71734 18.9993 9.48 18.9033 9.288 18.712C9.096 18.5207 9 18.2833 9 18V15ZM15 9H18C18.2833 9 18.521 9.096 18.713 9.288C18.905 9.48 19.0007 9.71734 19 10C18.9993 10.2827 18.9033 10.5203 18.712 10.713C18.5207 10.9057 18.2833 11.0013 18 11H14C13.7167 11 13.4793 10.904 13.288 10.712C13.0967 10.52 13.0007 10.2827 13 10V6C13 5.71667 13.096 5.47934 13.288 5.288C13.48 5.09667 13.7173 5.00067 14 5C14.2827 4.99934 14.5203 5.09534 14.713 5.288C14.9057 5.48067 15.0013 5.718 15 6V9Z" fill="white"/>
</svg>