<svg width="24" height="24" viewBox="0 0 24 24" fill="none" xmlns="http://www.w3.org/2000/svg">
  <path d="M7 17H10C10.2833 17 10.521 17.096 10.713 17.288C10.905 17.48 11.0007 17.7173 11 18C10.9993 18.2827 10.9033 18.5203 10.712 18.713C10.5207 18.9057 10.2833 19.0013 10 19H6C5.71667 19 5.47933 18.904 5.288 18.712C5.09667 18.52 5.00067 18.2827 5 18V14C5 13.7167 5.096 13.4793 5.288 13.288C5.48 13.0967 5.71733 13.0007 6 13C6.28267 12.9993 6.52033 13.0953 6.713 13.288C6.90567 13.4807 7.00133 13.718 7 14V17ZM17 7H14C13.7167 7 13.4793 6.904 13.288 6.712C13.0967 6.52 13.0007 6.28267 13 6C12.9993 5.71733 13.0953 5.48 13.288 5.288C13.4807 5.096 13.718 5 14 5H18C18.2833 5 18.521 5.096 18.713 5.288C18.905 5.48 19.0007 5.71733 19 6V10C19 10.2833 18.904 10.521 18.712 10.713C18.52 10.905 18.2827 11.0007 18 11C17.7173 10.9993 17.48 10.9033 17.288 10.712C17.096 10.5207 17 10.2833 17 10V7Z" fill="white"/>
</svg>