<svg width="24" height="24" viewBox="0 0 24 24" fill="none" xmlns="http://www.w3.org/2000/svg">
  <path d="M8.95 10.7L7.525 9.3C7.325 9.1 7.09167 9 6.825 9C6.55833 9 6.325 9.1 6.125 9.3C5.925 9.5 5.821 9.73333 5.813 10C5.805 10.2667 5.90067 10.5 6.1 10.7L8.225 12.825C8.425 13.025 8.66267 13.125 8.938 13.125C9.21333 13.125 9.45067 13.025 9.65 12.825L13.9 8.6C14.1 8.4 14.2 8.16233 14.2 7.887C14.2 7.61167 14.1 7.37433 13.9 7.175C13.7 6.97567 13.4627 6.87567 13.188 6.875C12.9133 6.87433 12.6757 6.97433 12.475 7.175L8.95 10.7ZM10 18C7.76667 18 5.875 17.225 4.325 15.675C2.775 14.125 2 12.2333 2 10C2 7.76667 2.775 5.875 4.325 4.325C5.875 2.775 7.76667 2 10 2C12.2333 2 14.125 2.775 15.675 4.325C17.225 5.875 18 7.76667 18 10C18 10.9333 17.8543 11.8127 17.563 12.638C17.2717 13.4633 16.859 14.2173 16.325 14.9L21.3 19.875C21.5 20.075 21.6 20.3127 21.6 20.588C21.6 20.8633 21.5 21.1007 21.3 21.3C21.1 21.4993 20.8627 21.5993 20.588 21.6C20.3133 21.6007 20.0757 21.5007 19.875 21.3L14.9 16.325C14.2167 16.8583 13.4627 17.271 12.638 17.563C11.8133 17.855 10.934 18.0007 10 18Z" fill="white"/>
</svg>