<svg width="26" height="28" viewBox="0 0 26 28" fill="none" xmlns="http://www.w3.org/2000/svg">
  <path d="M15.7681 9.51L10.5481 0.93C10.2081 0.35 9.59811 0 8.92811 0H2.3381C0.888104 0 -0.0218955 1.56 0.688104 2.82C2.00774 5.15472 3.87026 7.13729 6.1181 8.6C6.8781 9.19 7.8181 9.51 8.78811 9.51H15.7681Z" fill="#0074BA"/>
  <path d="M23.658 0H17.068C16.398 0 15.788 0.35 15.448 0.93L10.228 9.51H17.218C18.188 9.51 19.118 9.19 19.888 8.6C22.138 7.14 23.998 5.16 25.318 2.82C26.018 1.56 25.108 0 23.658 0Z" fill="#00A6ED"/>
  <path d="M12.9602 28.001C18.5052 28.001 23.0002 23.394 23.0002 17.711C23.0002 12.028 18.5052 7.42099 12.9602 7.42099C7.41517 7.42099 2.92017 12.028 2.92017 17.711C2.92017 23.394 7.41517 28.001 12.9602 28.001Z" fill="#BEBEBE"/>
  <path d="M12.9602 26.761C10.6002 26.761 8.38022 25.821 6.72022 24.111C5.0497 22.4007 4.11933 20.1017 4.13022 17.711C4.13022 15.291 5.05022 13.021 6.72022 11.311C7.53051 10.4736 8.50094 9.80772 9.57378 9.35296C10.6466 8.8982 11.8 8.66385 12.9652 8.66385C14.1305 8.66385 15.2838 8.8982 16.3567 9.35296C17.4295 9.80772 18.3999 10.4736 19.2102 11.311C22.6502 14.841 22.6502 20.581 19.2102 24.111C17.5302 25.821 15.3102 26.761 12.9602 26.761ZM12.9502 9.891C11.0002 9.891 9.04022 10.651 7.56022 12.181C6.12033 13.6605 5.31945 15.6465 5.33022 17.711C5.33022 19.801 6.12022 21.761 7.56022 23.241C8.25842 23.9656 9.09565 24.5419 10.0218 24.9354C10.9479 25.3289 11.944 25.5315 12.9502 25.531C14.9902 25.531 16.9002 24.721 18.3402 23.241C21.3102 20.191 21.3102 15.231 18.3402 12.181C17.6427 11.4554 16.8056 10.8785 15.8793 10.485C14.953 10.0914 13.9567 9.88937 12.9502 9.891Z" fill="#E6E6E6"/>
  <path d="M14.8382 21.95H10.8682C10.6769 21.9505 10.4895 21.8961 10.3282 21.7933C10.1669 21.6905 10.0385 21.5436 9.95818 21.37C9.87539 21.1979 9.84364 21.0056 9.86668 20.816C9.88971 20.6264 9.96658 20.4473 10.0882 20.3L13.3882 16.25C13.6482 15.93 13.5282 15.59 13.4882 15.49C13.4412 15.3739 13.3613 15.2741 13.2582 15.203C13.1551 15.1319 13.0334 15.0926 12.9082 15.09H12.8582C12.5382 15.09 12.2482 15.24 12.0582 15.5C11.7382 15.95 11.1082 16.06 10.6482 15.74C10.5397 15.6633 10.4474 15.5659 10.3766 15.4535C10.3058 15.3411 10.2579 15.2158 10.2356 15.0848C10.2133 14.9538 10.2171 14.8197 10.2467 14.6902C10.2763 14.5607 10.3312 14.4383 10.4082 14.33C10.9682 13.54 11.8782 13.07 12.8482 13.07H12.9782C13.9982 13.12 14.8882 13.73 15.3082 14.66C15.7382 15.62 15.5982 16.71 14.9382 17.52L12.9882 19.92H14.8282C15.3882 19.92 15.8382 20.37 15.8382 20.93C15.8382 21.49 15.3982 21.95 14.8382 21.95Z" fill="#636363"/>
</svg>