<svg width="26" height="28" viewBox="0 0 26 28" fill="none" xmlns="http://www.w3.org/2000/svg">
  <path d="M15.7681 9.51L10.5481 0.93C10.2081 0.35 9.59811 0 8.92811 0H2.3381C0.888104 0 -0.0218955 1.56 0.688104 2.82C2.00774 5.15472 3.87026 7.13729 6.1181 8.6C6.8781 9.19 7.8181 9.51 8.78811 9.51H15.7681Z" fill="#0074BA"/>
  <path d="M23.658 0H17.068C16.398 0 15.788 0.35 15.448 0.93L10.228 9.51H17.218C18.188 9.51 19.118 9.19 19.888 8.6C22.138 7.14 23.998 5.16 25.318 2.82C26.018 1.56 25.108 0 23.658 0Z" fill="#00A6ED"/>
  <path d="M12.9902 28C18.5352 28 23.0302 23.393 23.0302 17.71C23.0302 12.027 18.5352 7.42001 12.9902 7.42001C7.4452 7.42001 2.9502 12.027 2.9502 17.71C2.9502 23.393 7.4452 28 12.9902 28Z" fill="#D3883E"/>
  <path d="M13 26.76C10.64 26.76 8.42002 25.82 6.76002 24.11C5.0895 22.3997 4.15913 20.1007 4.17002 17.71C4.17002 15.29 5.09002 13.02 6.76002 11.31C7.57031 10.4726 8.54073 9.80671 9.61358 9.35195C10.6864 8.89719 11.8398 8.66284 13.005 8.66284C14.1703 8.66284 15.3236 8.89719 16.3965 9.35195C17.4693 9.80671 18.4397 10.4726 19.25 11.31C22.69 14.84 22.69 20.58 19.25 24.11C17.57 25.82 15.35 26.76 13 26.76ZM12.99 9.88999C11.04 9.88999 9.08002 10.65 7.60002 12.18C6.16013 13.6595 5.35925 15.6455 5.37002 17.71C5.37002 19.8 6.16002 21.76 7.60002 23.24C8.29821 23.9646 9.13544 24.5409 10.0616 24.9344C10.9877 25.3279 11.9837 25.5305 12.99 25.53C15.03 25.53 16.94 24.72 18.38 23.24C21.35 20.19 21.35 15.23 18.38 12.18C17.6825 11.4544 16.8454 10.8775 15.9191 10.484C14.9928 10.0904 13.9965 9.88837 12.99 9.88999Z" fill="#F3AD61"/>
  <path d="M14.4022 16.275L15.4502 14.465C15.5356 14.3164 15.5806 14.1479 15.5806 13.9765C15.5806 13.8051 15.5356 13.6366 15.4502 13.488C15.3651 13.3394 15.2422 13.216 15.0939 13.1303C14.9457 13.0446 14.7774 12.9996 14.6062 13H11.5142C11.2606 13.0081 11.0201 13.1146 10.8436 13.2968C10.6671 13.479 10.5684 13.7228 10.5684 13.9765C10.5684 14.2302 10.6671 14.474 10.8436 14.6562C11.0201 14.8384 11.2606 14.9449 11.5142 14.953H12.9172L12.1652 16.264C12.0276 16.4338 11.9521 16.6455 11.9512 16.864C11.9512 17.404 12.3892 17.841 12.9282 17.841C13.5382 17.841 14.0362 18.339 14.0362 18.949C14.0362 19.559 13.5382 20.058 12.9282 20.058C12.4602 20.058 12.0432 19.763 11.8902 19.325C11.8031 19.083 11.6239 18.8852 11.3917 18.7747C11.1594 18.6642 10.8929 18.6499 10.6502 18.735C10.5295 18.7771 10.4184 18.8427 10.3233 18.9281C10.2281 19.0135 10.1509 19.1169 10.096 19.2323C10.0411 19.3477 10.0097 19.4729 10.0036 19.6006C9.99741 19.7282 10.0166 19.8558 10.0602 19.976C10.2728 20.5669 10.662 21.0781 11.1751 21.4401C11.6882 21.8022 12.3002 21.9977 12.9282 22C13.7368 21.9992 14.5122 21.6776 15.084 21.1058C15.6558 20.534 15.9774 19.7587 15.9782 18.95C15.9769 18.4043 15.8303 17.8688 15.5532 17.3986C15.2762 16.9284 14.8789 16.5406 14.4022 16.275Z" fill="#402A32"/>
</svg>