<svg
              width="24"
              height="24"
              viewBox="0 0 24 24"
              fill="none"
              xmlns="http://www.w3.org/2000/svg"
            >
              <path
                d="M7.825 13H19C19.2833 13 19.5207 12.904 19.712 12.712C19.9033 12.52 19.9993 12.2827 20 12C20.0007 11.7174 19.9047 11.48 19.712 11.288C19.5193 11.096 19.282 11 19 11H7.825L12.725 6.10004C12.925 5.90004 13.021 5.6667 13.013 5.40004C13.005 5.13337 12.9007 4.90004 12.7 4.70004C12.5 4.5167 12.2667 4.4207 12 4.41204C11.7333 4.40337 11.5 4.49937 11.3 4.70004L4.7 11.3C4.6 11.4 4.529 11.5084 4.487 11.625C4.445 11.7417 4.42433 11.8667 4.425 12C4.42566 12.1334 4.44633 12.2584 4.487 12.375C4.52766 12.4917 4.59866 12.6 4.7 12.7L11.3 19.3C11.4833 19.4834 11.7123 19.575 11.987 19.575C12.2617 19.575 12.4993 19.4834 12.7 19.3C12.9 19.1 13 18.8627 13 18.588C13 18.3134 12.9 18.0757 12.7 17.875L7.825 13Z"
                fill="white"
              />
            </svg>